# xmcd CD database file
#
# Track frame offsets:
#	150
#	10525
#	22335
#	39612
#	54656
#	64239
#	77012
#	92262
#	106678
#	120634
#	132363
#	145868
#	164857
#	179983
#	194211
#	208275
#	221223
#	236229
#	250817
#	261743
#	277916
#	292974
#	308259
#	325371
#	341025
#
# Disc length: 4711 seconds
#
# Revision: 14
# Processed by: cddbd v1.5.2PL0 Copyright (c) Steve Scherf et al.
# Submitted via: CDex 1.51
#
DISCID=8e126519
DTITLE=George Strait - 50 Number Ones [CD 2)
DYEAR=2004
DGENRE=Country
TTITLE0=George Strait and Stuart Duncan - Heartland
TTITLE1=George Strait - Easy Come, Easy Go (Edit)
TTITLE2=George Strait - I'd Like To Have That One Back
TTITLE3=George Strait - The Man In Love With You
TTITLE4=George Strait - The Big One
TTITLE5=George Strait - You Can't Make A Heart Love Somebody (Edit)
TTITLE6=George Strait - Lead On
TTITLE7=George Strait - Check Yes Or No
TTITLE8=George Strait - I Know She Still Loves Me
TTITLE9=George Strait - Blue Clear Sky (Edit)
TTITLE10=George Strait - Carried Away (Edit)
TTITLE11=George Strait - I Can Still Make Cheyenne
TTITLE12=George Strait - One Night At A Time (Edit)
TTITLE13=George Strait - Carrying Your Love With Me (Edit)
TTITLE14=George Strait - Today My World Slipped Away
TTITLE15=George Strait - Round About Way
TTITLE16=George Strait - I Just Want To Dance With You
TTITLE17=George Strait - True (Edit)
TTITLE18=George Strait - We Really Shouldn't Be Doing This
TTITLE19=George Strait - Write This Down
TTITLE20=George Strait - The Best Day
TTITLE21=George Strait - Go On (Edit)
TTITLE22=George Strait - Run (Edit)
TTITLE23=George Strait - Living And Living Well
TTITLE24=George Strait - She'll Leave You With A Smile (Edit)
EXTD=YEAR: 2004
EXTT0=
EXTT1=
EXTT2=
EXTT3=
EXTT4=
EXTT5=
EXTT6=
EXTT7=
EXTT8=
EXTT9=
EXTT10=
EXTT11=
EXTT12=
EXTT13=
EXTT14=
EXTT15=
EXTT16=
EXTT17=
EXTT18=
EXTT19=
EXTT20=
EXTT21=
EXTT22=
EXTT23=
EXTT24=
PLAYORDER=
